<svg id="Layer_1" data-name="Layer 1" xmlns="http://www.w3.org/2000/svg" viewBox="0 0 140 85.98"><defs><style>.cls-1{fill:#fff;}</style></defs><g id="path229720"><path class="cls-1" d="M476.38,375.38c12.51,3.73,26.58,8.06,26.58,25.74,0,15.39-12.39,25.37-31.51,25.37a57.4,57.4,0,0,1-35.95-13.11l7.21-15.15c8.18,7.22,20.2,12.39,29,12.39,7.1,0,11.31-3.13,11.31-8.42,0-7-7.7-9.26-16.6-11.91l-2.88-.72c-4.33-1.92-6.5-4.45-6.62-10.82a18.46,18.46,0,0,1,1.08-5.53,15.1,15.1,0,0,1,3.61-5.17c2.65,3.49,8.42,5.29,14.79,7.21v.12Z" transform="translate(-435.5 -340.51)"/><path class="cls-1" d="M446.32,380.92c-3.61-3.49-6-8.3-6-15.4,0-15.15,12.26-25,31.38-25,10.94,0,22.37,3.37,30.79,9L495.38,365c-8.54-5.05-18.88-8.54-25.49-8.54a24.91,24.91,0,0,0-9.38,1.81,23.1,23.1,0,0,0-10.22,7.93C449.45,367.45,444.64,374.42,446.32,380.92Z" transform="translate(-435.5 -340.51)"/></g><g id="path229722"><path class="cls-1" d="M575.5,341.35v15.88H508V341.35Zm-43.29,25.38c8.78-7,18.76,0,18.76,0v58.8H532.09v-58.8Z" transform="translate(-435.5 -340.51)"/></g></svg>